HIERARCHY
ROOT Model_Hips
{
	OFFSET 0.000000 96.915077 0.000000
	CHANNELS 6 Xposition Yposition Zposition Xrotation Yrotation Zrotation
	JOINT Model_Spine
	{
		OFFSET 0.000000 11.137703 -1.289900
		CHANNELS 3 Xrotation Yrotation Zrotation
		JOINT Model_Spine1
		{
			OFFSET 0.000000 12.993942 -1.504922
			CHANNELS 3 Xrotation Yrotation Zrotation
			JOINT Model_Spine2
			{
				OFFSET 0.000000 14.850220 -1.719911
				CHANNELS 3 Xrotation Yrotation Zrotation
				JOINT Model_Neck
				{
					OFFSET 0.000000 16.706543 -1.934903
					CHANNELS 3 Xrotation Yrotation Zrotation
					JOINT Model_Head
					{
						OFFSET 0.000000 10.471298 2.002100
						CHANNELS 3 Xrotation Yrotation Zrotation
						JOINT Model_HeadTop_End
						{
							OFFSET 0.000000 20.842606 3.985100
							CHANNELS 3 Xrotation Yrotation Zrotation
							End Site
							{
								OFFSET 0.000000 21.220154 0.000000
							}
						}
					}
				}
				JOINT Model_LeftShoulder
				{
					OFFSET 7.008500 14.768600 -1.919946
					CHANNELS 3 Xrotation Yrotation Zrotation
					JOINT Model_LeftArm
					{
						OFFSET 14.126271 -3.718048 0.029937
						CHANNELS 3 Xrotation Yrotation Zrotation
						JOINT Model_LeftForeArm
						{
							OFFSET 28.282801 0.000000 0.000000
							CHANNELS 3 Xrotation Yrotation Zrotation
							JOINT Model_LeftHand
							{
								OFFSET 26.204689 0.000000 0.000000
								CHANNELS 3 Xrotation Yrotation Zrotation
								End Site
								{
									OFFSET 26.204704 0.000000 0.000000
								}
							}
						}
					}
				}
				JOINT Model_RightShoulder
				{
					OFFSET -7.008500 14.768555 -1.949840
					CHANNELS 3 Xrotation Yrotation Zrotation
					JOINT Model_RightArm
					{
						OFFSET -14.126281 -3.718018 -0.029932
						CHANNELS 3 Xrotation Yrotation Zrotation
						JOINT Model_RightForeArm
						{
							OFFSET -28.283798 0.000000 -0.000001
							CHANNELS 3 Xrotation Yrotation Zrotation
							JOINT Model_RightHand
							{
								OFFSET -26.204193 0.000000 -0.000001
								CHANNELS 3 Xrotation Yrotation Zrotation
								End Site
								{
									OFFSET -26.204208 0.000000 -0.000001
								}
							}
						}
					}
				}
			}
		}
	}
	JOINT Model_LeftUpLeg
	{
		OFFSET 8.327700 -6.193199 -0.402800
		CHANNELS 3 Xrotation Yrotation Zrotation
		JOINT Model_LeftLeg
		{
			OFFSET 0.735802 -42.108742 -0.610721
			CHANNELS 3 Xrotation Yrotation Zrotation
			JOINT Model_LeftFoot
			{
				OFFSET -0.735806 -36.833748 -0.172876
				CHANNELS 3 Xrotation Yrotation Zrotation
				JOINT Model_LeftToeBase
				{
					OFFSET -0.565857 -11.977769 16.297714
					CHANNELS 3 Xrotation Yrotation Zrotation
					JOINT Model_LeftToe_End
					{
						OFFSET -0.111712 -0.312793 7.857784
						CHANNELS 3 Xrotation Yrotation Zrotation
						End Site
						{
							OFFSET -0.111712 -0.312793 7.857784
						}
					}
				}
			}
		}
	}
	JOINT Model_RightUpLeg
	{
		OFFSET -8.327700 -6.193199 -0.516500
		CHANNELS 3 Xrotation Yrotation Zrotation
		JOINT Model_RightLeg
		{
			OFFSET -0.735785 -42.108738 -0.434061
			CHANNELS 3 Xrotation Yrotation Zrotation
			JOINT Model_RightFoot
			{
				OFFSET 0.735776 -36.833748 -0.021630
				CHANNELS 3 Xrotation Yrotation Zrotation
				JOINT Model_RightToeBase
				{
					OFFSET 0.565817 -11.977745 15.903093
					CHANNELS 3 Xrotation Yrotation Zrotation
					JOINT Model_RightToe_End
					{
						OFFSET 0.111702 -0.312791 7.811342
						CHANNELS 3 Xrotation Yrotation Zrotation
						End Site
						{
							OFFSET 0.111702 -0.312791 7.811342
						}
					}
				}
			}
		}
	}
}
MOTION
Frames: 11
Frame Time: 0.016667
0.492126 83.788834 3.225641 13.795008 22.523129 11.174108 5.238249 -2.833852 -3.013133 10.567119 -5.980073 -2.498732 10.567118 -5.980073 -2.498732 -1.285208 0.741290 1.300217 -1.285172 0.741284 1.300224 -0.000001 -0.000000 0.000000 0.817220 -10.759165 11.613301 -25.352479 -6.118460 -77.583982 -0.034059 -108.463595 -0.054195 -0.000001 0.000000 0.000001 0.344359 -2.030801 -4.441046 2.894240 -4.672445 60.213930 0.011010 58.806850 -0.143593 0.000004 -0.000002 0.000001 -24.781904 1.139140 -18.546735 66.322694 0.245372 -2.225279 -28.887848 -8.951140 7.592743 -28.202794 -0.204017 1.010456 0.000001 0.000000 -0.000000 -48.541219 5.866651 -26.616335 135.509901 4.280769 3.307702 5.318563 8.762861 7.976819 -1.467859 0.030077 -0.065856 0.000000 -0.000000 -0.000000 
0.917856 82.956520 9.371107 13.053268 26.881871 10.939124 5.183319 -3.658378 -2.823140 10.528265 -7.450615 -1.831237 10.528263 -7.450613 -1.831240 -0.581126 0.697718 1.529789 -0.581123 0.697723 1.529789 -0.000001 0.000001 -0.000000 0.351747 -13.087673 11.163373 -30.087878 -7.330709 -79.728593 -0.000037 -116.114800 -0.026784 -0.000000 0.000000 -0.000002 0.362567 -4.345929 -6.965850 11.680062 -6.359758 61.503285 -0.050328 56.214072 -0.109007 -0.000002 -0.000001 -0.000002 -18.824117 -3.987530 -17.146053 62.847726 0.153344 -2.290774 -31.956587 -11.198906 6.211425 -28.443297 -0.203180 1.011174 0.000000 -0.000001 -0.000000 -56.830982 7.532425 -27.471842 135.194087 2.748572 1.946599 5.559180 5.900962 9.383328 0.007030 0.028629 -0.062667 -0.000000 0.000000 0.000000 
1.420639 82.411125 15.616840 12.764744 31.129192 10.233751 5.261792 -4.465929 -2.239351 10.747570 -8.829041 -0.867666 10.747572 -8.829033 -0.867673 -1.146455 0.630101 1.654505 -1.146452 0.630097 1.654510 0.000001 0.000000 -0.000001 0.025600 -15.290256 11.257254 -34.504289 -8.606743 -81.962079 0.020853 -124.294321 -0.014691 -0.000002 0.000002 0.000001 0.302368 -6.505963 -9.358445 20.494188 -7.859529 62.350898 -0.110829 54.866981 -0.078515 0.000002 0.000000 0.000003 -12.005867 -8.128019 -14.133498 56.962876 -0.655016 -2.033524 -33.425146 -13.421665 5.026905 -28.746671 -0.213413 1.174689 0.000000 0.000000 0.000000 -63.876838 9.005219 -27.657555 133.342764 0.840370 0.775651 4.787517 3.009277 10.548104 0.924940 0.025988 -0.060478 0.000001 -0.000000 0.000000 
1.954602 82.675713 21.765783 13.173224 32.591450 8.228122 5.226553 -4.976928 -1.264493 10.698875 -9.611234 0.369852 10.698874 -9.611234 0.369851 -1.566537 0.615769 1.648177 -1.566553 0.615763 1.648181 -0.000002 -0.000000 -0.000000 -0.234489 -15.899060 11.689898 -36.903263 -10.963529 -82.543546 0.022997 -128.685422 -0.021697 -0.000000 0.000000 0.000000 0.218106 -7.858946 -10.797127 29.080794 -6.515407 60.505791 -0.148952 57.144119 -0.057058 0.000002 -0.000001 -0.000002 -3.767413 -10.232291 -9.388722 47.355552 0.300050 -1.267811 -32.165328 -15.255031 2.577945 -29.240330 -0.235854 1.494978 0.000000 -0.000001 -0.000000 -71.120205 8.115143 -25.804255 127.447546 -2.823711 -0.570652 3.701542 0.042570 7.761075 0.508304 0.025704 -0.061326 0.000000 0.000000 0.000000 
2.461962 83.267296 27.995087 14.154560 33.126653 5.879220 5.081309 -5.297327 -0.173260 10.412462 -10.160235 1.704369 10.412451 -10.160247 1.704372 -1.884995 0.626204 1.627357 -1.884979 0.626200 1.627358 0.000001 -0.000000 -0.000000 -0.305942 -15.971738 12.504105 -38.372139 -13.570948 -82.531464 0.025154 -132.982882 -0.031409 0.000002 0.000003 -0.000000 0.096892 -8.791020 -11.839912 37.200151 -4.749574 57.850316 -0.166975 60.919024 -0.042574 -0.000001 -0.000001 -0.000000 5.403028 -9.978524 -4.155615 34.429829 0.431391 -0.356331 -26.234765 -16.998174 1.218090 -30.990628 -0.359306 2.760556 0.000000 -0.000000 -0.000000 -76.374772 6.893468 -24.066952 119.256810 -5.563552 -1.141960 1.231222 -2.756969 4.660261 -0.928122 0.028821 -0.064674 -0.000001 -0.000000 -0.000001 
2.933812 83.984695 34.664303 15.422222 32.428966 3.601384 4.764249 -5.331495 0.938714 9.763212 -10.432071 2.998889 9.763215 -10.432063 2.998886 -1.727573 0.705862 1.485050 -1.727558 0.705867 1.485053 -0.000000 0.000001 -0.000000 -0.315451 -15.322419 12.969510 -38.837385 -16.381565 -81.168780 0.024037 -136.929911 -0.043228 -0.000001 -0.000003 -0.000003 -0.001818 -9.326605 -12.314229 44.354501 -2.388663 54.833431 -0.177927 65.075720 -0.029640 -0.000002 0.000000 -0.000001 16.013186 -7.034767 0.719690 16.531884 -0.982144 0.229124 -12.373557 -18.513354 1.995981 -34.993914 -0.396025 0.829963 0.000000 -0.000000 -0.000000 -79.166919 5.521421 -22.402481 109.593875 -6.806139 -0.830714 -2.202367 -5.583657 4.102254 -4.026293 0.036129 -0.071590 -0.000005 -0.000001 -0.000000 
3.351517 84.794067 41.475491 16.666266 30.923804 1.950688 4.341609 -5.224692 1.706537 8.940469 -10.483361 4.167514 8.940467 -10.483355 4.167509 -1.488189 0.815905 1.217514 -1.488207 0.815906 1.217509 0.000002 -0.000000 0.000000 -0.355902 -14.231326 12.775569 -37.963759 -19.063891 -78.835252 0.021848 -139.936998 -0.051944 -0.000000 0.000003 -0.000003 -0.078410 -9.472588 -12.385904 50.378932 0.527232 51.961272 -0.186306 68.767834 -0.015571 0.000001 0.000000 -0.000000 14.147250 -3.226322 2.989433 18.935035 -5.294838 -0.232314 2.524403 -16.717491 2.280103 -47.249309 -1.962417 4.568365 0.000001 0.000000 -0.000000 -80.517828 3.799229 -20.984976 98.772452 -7.469346 -0.286002 -6.521339 -8.635798 4.262867 -6.693760 0.038379 -0.077059 0.000003 -0.000000 0.000000 
3.763801 85.443977 48.340469 17.630223 28.904121 1.005971 3.873029 -5.053125 2.193225 8.036803 -10.322518 5.095534 8.036820 -10.322517 5.095536 -1.335090 0.938578 0.802849 -1.335083 0.938577 0.802850 -0.000002 0.000000 0.000001 -0.563620 -12.898506 11.308455 -35.364804 -21.230707 -75.591766 0.018756 -141.514881 -0.053220 -0.000004 0.000001 -0.000002 -0.116622 -9.086301 -12.238973 54.761243 4.224597 49.959528 -0.187472 70.784358 -0.004551 0.000003 -0.000001 -0.000002 12.209667 -4.611685 2.908716 21.736683 -5.607126 0.196818 13.739988 -13.223040 -0.366042 -49.530609 -4.923344 8.053542 -0.000000 0.000000 -0.000000 -80.653927 1.672766 -19.771130 87.463093 -7.784324 0.199975 -12.500794 -12.395829 4.422996 -6.564085 0.037022 -0.076833 0.000000 0.000001 0.000000 
4.097411 86.015320 55.267406 18.157551 26.721211 0.822624 3.398169 -4.837991 2.442510 7.103694 -10.037343 5.621961 7.103686 -10.037337 5.621951 -1.124015 1.039826 0.363954 -1.124011 1.039829 0.363956 0.000002 0.000000 0.000001 -0.825696 -11.392920 8.839159 -31.054261 -22.995667 -71.680185 0.011835 -141.163549 -0.050309 -0.000000 0.000000 -0.000001 -0.117492 -8.659684 -11.634464 57.303033 8.427240 48.538312 -0.180626 71.190870 0.000235 0.000002 0.000002 -0.000001 9.411149 -5.989696 2.049133 26.428959 -6.024684 0.322923 23.517135 -10.909953 -2.758634 -39.865956 -7.155349 12.910462 -0.000002 -0.000000 0.000000 -79.460467 -0.984282 -18.761946 75.885458 -7.717546 0.584461 -18.799971 -15.502525 4.110518 -5.101371 0.035246 -0.073766 -0.000001 -0.000000 0.000000 
4.291281 86.532707 62.284599 18.037119 24.847185 1.711159 2.933938 -4.625754 2.313766 6.158856 -9.736415 5.403137 6.158855 -9.736407 5.403131 -0.684448 1.004507 0.252107 -0.684457 1.004506 0.252111 -0.000002 0.000000 0.000000 -1.116152 -9.880615 5.257042 -24.646958 -24.423780 -67.294207 0.000274 -138.092587 -0.046940 0.000001 -0.000001 -0.000002 -0.087554 -8.684141 -10.458156 57.477360 13.263369 47.858801 -0.174641 69.201755 0.002282 0.000000 -0.000000 0.000000 6.469887 -7.181654 0.876621 33.644877 -6.250591 -1.285190 28.450076 -7.816723 -1.169091 -6.646704 0.005219 2.256184 -0.000000 -0.000001 -0.000000 -76.720025 -4.205203 -18.227917 64.071730 -7.453493 0.795289 -24.378943 -16.508808 3.304574 -2.470012 0.033431 -0.068181 0.000001 0.000000 0.000001 
4.332374 86.921303 69.259399 17.310025 23.067900 3.133634 2.562313 -4.388280 1.967772 5.379029 -9.326860 4.751442 5.379032 -9.326862 4.751437 -0.132793 0.902149 0.254921 -0.132751 0.902147 0.254927 0.000004 0.000000 0.000001 -1.307758 -8.243886 1.082901 -17.161557 -25.378611 -62.741940 -0.015001 -132.668064 -0.045678 -0.000002 -0.000003 0.000001 0.028186 -9.027715 -8.484339 55.830270 17.932308 47.361966 -0.170559 66.105685 0.002858 0.000002 0.000000 -0.000000 3.155905 -7.363181 -0.660549 42.356435 -7.203297 -2.537076 30.462504 -4.029500 0.861184 -5.092176 0.145128 0.788431 0.000001 -0.000000 0.000001 -72.978351 -7.518003 -17.602910 53.558194 -6.846467 0.912401 -28.425080 -15.898718 2.641981 -0.202817 0.026831 -0.063071 0.000001 -0.000001 0.000000 
